<?xml version="1.0" standalone="no"?><!DOCTYPE svg PUBLIC "-//W3C//DTD SVG 1.1//EN" "http://www.w3.org/Graphics/SVG/1.1/DTD/svg11.dtd"><svg class="icon" style="" viewBox="0 0 1024 1024" version="1.1" xmlns="http://www.w3.org/2000/svg" p-id="15427" xmlns:xlink="http://www.w3.org/1999/xlink" width="200" height="200"><defs><style type="text/css"><![CDATA[

]]></style></defs><path d="M474.197 576.049c21.544 21.034 56.478 21.034 78.026 0l393.466-383.229c21.546-21.036 21.546-55.142 0-76.179s-56.48-21.037-78.026 0l-354.454 345.23-354.454-345.23c-21.549-21.037-56.482-21.037-78.028 0-21.547 21.036-21.547 55.142 0 76.179l393.467 383.228zM867.663 448.949l-354.454 345.23-354.454-345.23c-21.549-21.037-56.482-21.037-78.028 0-21.547 21.036-21.547 55.142 0 76.179l393.468 383.228c21.544 21.034 56.478 21.034 78.026 0l393.466-383.229c21.546-21.036 21.546-55.142 0-76.179-21.547-21.036-56.482-21.037-78.026 0z" p-id="15428" fill="#e2dddd"></path></svg>