<?xml version="1.0" standalone="no"?><!DOCTYPE svg PUBLIC "-//W3C//DTD SVG 1.1//EN" "http://www.w3.org/Graphics/SVG/1.1/DTD/svg11.dtd"><svg class="icon" style="" viewBox="0 0 1024 1024" version="1.1" xmlns="http://www.w3.org/2000/svg" p-id="3010" xmlns:xlink="http://www.w3.org/1999/xlink" width="200" height="200"><defs><style type="text/css"><![CDATA[

]]></style></defs><path d="M729.9072 593.28c44.8768 0 81.3824-36.48 81.3824-81.28 0-44.8512-36.5056-81.3568-81.3824-81.3568-44.8256 0-81.3056 36.5056-81.3056 81.3568C648.6272 556.8 685.0816 593.28 729.9072 593.28zM729.9072 469.0432c23.7056 0 42.9824 19.2768 42.9824 42.9568 0 23.6288-19.2768 42.88-42.9824 42.88-23.6544 0-42.9056-19.2512-42.9056-42.88C687.0272 488.32 706.2784 469.0432 729.9072 469.0432zM429.9776 512c0 44.8 36.48 81.28 81.3056 81.28 44.8768 0 81.3824-36.48 81.3824-81.28 0-44.8512-36.5056-81.3568-81.3824-81.3568C466.432 430.6432 429.9776 467.1232 429.9776 512zM554.24 512c0 23.6288-19.2768 42.88-42.9824 42.88-23.6544 0-42.9056-19.2512-42.9056-42.88 0-23.68 19.2512-42.9568 42.9056-42.9568C534.9632 469.0432 554.24 488.32 554.24 512zM292.6848 430.6432c-44.8768 0-81.3824 36.5056-81.3824 81.3568 0 44.8 36.5056 81.28 81.3824 81.28 44.8256 0 81.3056-36.48 81.3056-81.28C373.9904 467.1232 337.5104 430.6432 292.6848 430.6432zM292.6848 554.88c-23.7056 0-42.9824-19.2512-42.9824-42.88 0-23.68 19.2768-42.9568 42.9824-42.9568 23.6544 0 42.9056 19.2768 42.9056 42.9568C335.5904 535.6288 316.3392 554.88 292.6848 554.88zM53.3504 513.4848c0 254.6688 207.1808 461.8752 461.8496 461.8752s461.8752-207.2064 461.8752-461.8752S769.8688 51.6096 515.2 51.6096 53.3504 258.816 53.3504 513.4848zM938.6752 513.4848c0 233.4976-189.9776 423.4752-423.4752 423.4752S91.7504 746.9824 91.7504 513.4848s189.952-423.4752 423.4496-423.4752S938.6752 279.9872 938.6752 513.4848z" p-id="3011" fill="#e2dddd"></path></svg>