<?xml version="1.0" standalone="no"?><!DOCTYPE svg PUBLIC "-//W3C//DTD SVG 1.1//EN" "http://www.w3.org/Graphics/SVG/1.1/DTD/svg11.dtd"><svg class="icon" style="" viewBox="0 0 1024 1024" version="1.1" xmlns="http://www.w3.org/2000/svg" p-id="9009" xmlns:xlink="http://www.w3.org/1999/xlink" width="200" height="200"><defs><style type="text/css"><![CDATA[

]]></style></defs><path d="M531.2 230.4V153.6c0-6.4-6.4-19.2-19.2-19.2-6.4 0-19.2 6.4-19.2 19.2v76.8c0 6.4 6.4 19.2 19.2 19.2 12.8 0 19.2-6.4 19.2-19.2zM499.2 806.4v76.8c0 6.4 6.4 19.2 19.2 19.2 6.4 0 19.2-6.4 19.2-19.2v-76.8c0-6.4-6.4-19.2-19.2-19.2-12.8 0-19.2 12.8-19.2 19.2zM876.8 512h-76.8c-6.4 0-19.2 6.4-19.2 19.2 0 6.4 6.4 19.2 19.2 19.2h76.8c6.4 0 19.2-6.4 19.2-19.2 0-12.8-6.4-19.2-19.2-19.2zM224 512H147.2c-12.8 0-19.2 6.4-19.2 19.2 0 6.4 6.4 19.2 19.2 19.2h76.8c6.4 0 19.2-6.4 19.2-19.2 0-12.8-6.4-19.2-19.2-19.2zM780.8 256c-6.4-6.4-19.2-6.4-25.6 0l-51.2 57.6c-6.4 6.4-6.4 19.2 0 25.6 6.4 6.4 6.4 6.4 12.8 6.4s6.4 0 12.8-6.4l57.6-57.6c0-6.4 0-19.2-6.4-25.6zM243.2 800c6.4 6.4 6.4 6.4 12.8 6.4s6.4 0 12.8-6.4l57.6-57.6c6.4-6.4 6.4-19.2 0-25.6-6.4-6.4-19.2-6.4-25.6 0l-57.6 57.6c-6.4 6.4-6.4 19.2 0 25.6zM755.2 800c6.4 6.4 6.4 6.4 12.8 6.4s6.4 0 12.8-6.4 6.4-19.2 0-25.6l-57.6-57.6c-6.4-6.4-19.2-6.4-25.6 0-6.4 6.4-6.4 19.2 0 25.6l57.6 57.6zM313.6 345.6c6.4-6.4 6.4-19.2 0-25.6L256 262.4c-6.4-6.4-12.8-6.4-19.2 0-6.4 6.4-6.4 19.2 0 25.6l57.6 57.6c6.4 6.4 6.4 6.4 12.8 6.4l6.4-6.4zM684.8 633.6c44.8-57.6 57.6-128 38.4-198.4 0-6.4-12.8-12.8-19.2-12.8-6.4 0-12.8 12.8-12.8 19.2 19.2 64 6.4 121.6-32 166.4-32 44.8-89.6 70.4-147.2 70.4-102.4 0-185.6-76.8-185.6-179.2 0-83.2 64-147.2 147.2-147.2 64 0 115.2 51.2 115.2 115.2 0 51.2-38.4 89.6-89.6 89.6-38.4 0-64-32-64-64 0-25.6 25.6-51.2 51.2-51.2 19.2 0 38.4 19.2 38.4 38.4 0 12.8-12.8 25.6-25.6 25.6-6.4 0-19.2-6.4-19.2-19.2 0-6.4-6.4-19.2-19.2-19.2s-12.8 12.8-12.8 19.2c0 25.6 25.6 51.2 51.2 51.2 32 0 57.6-25.6 57.6-57.6 0-38.4-32-70.4-70.4-70.4-44.8 0-83.2 38.4-83.2 83.2 0 57.6 44.8 102.4 102.4 102.4 70.4 0 121.6-57.6 121.6-121.6 0-83.2-64-147.2-147.2-147.2C377.6 320 300.8 403.2 300.8 505.6c0 121.6 96 217.6 217.6 217.6 64-6.4 128-38.4 166.4-89.6z" p-id="9010" fill="#e2dddd"></path></svg>